<?xml version="1.0" encoding="UTF-8"?>
<svg width="100pt" version="1.1" xmlns="http://www.w3.org/2000/svg" height="100pt" viewBox="0 0 100 100" xmlns:xlink="http://www.w3.org/1999/xlink">
 <defs/>
 <g id="Background">
  <path style="fill:#06283d; fill-rule:evenodd;stroke:none;" id=" path12" d="M0 8.3015 L1.8005 8.3015 L1.8005 5.8461 L3.1685 5.8461 C3.6304 5.8461 4.061 5.7837 4.4605 5.6629 C4.86 5.5401 5.2088 5.3589 5.5109 5.1173 C5.8129 4.8776 6.0487 4.5774 6.2182 4.2189 C6.3878 3.8603 6.4755 3.4433 6.4774 2.9698 L6.4774 2.9464 C6.4774 2.5275 6.4053 2.1435 6.2631 1.7987 C6.1208 1.4537 5.9142 1.1555 5.6433 0.9042 C5.3725 0.6528 5.0432 0.4599 4.6573 0.3235 C4.2715 0.187 3.833 0.1188 3.3439 0.1169 L0 0.1169 L0 8.3015 Z M1.8005 4.2442 L1.8005 1.7421 L3.1919 1.7421 C3.494 1.7421 3.7531 1.7889 3.9714 1.8844 C4.1896 1.9779 4.3572 2.1183 4.4742 2.3014 C4.593 2.4846 4.6514 2.7125 4.6534 2.9815 L4.6534 3.0049 C4.6534 3.2407 4.5969 3.4511 4.4838 3.6382 C4.3709 3.8234 4.2091 3.9715 3.9967 4.0786 C3.7843 4.1877 3.529 4.2423 3.227 4.2442 L1.8005 4.2442 Z M7.8103 8.3015 L14.0423 8.3015 L14.0423 6.6996 L9.5992 6.6996 L9.5992 4.9808 L13.4576 4.9808 L13.4576 3.379 L9.5992 3.379 L9.5992 1.7188 L13.9838 1.7188 L13.9838 0.1169 L7.8103 0.1169 L7.8103 8.3015 Z M15.6441 8.3015 L17.4447 8.3015 L17.4447 5.6824 L18.8595 5.6824 L20.6133 8.3015 L22.7178 8.3015 L20.7185 5.3784 C21.0673 5.2498 21.3733 5.0705 21.6363 4.8425 C21.8974 4.6145 22.1021 4.3339 22.2482 4.0006 C22.3963 3.6675 22.4704 3.2816 22.4723 2.8412 L22.4723 2.8178 C22.4723 2.43 22.4119 2.0792 22.293 1.7636 C22.1742 1.4479 21.9988 1.175 21.7708 0.947 C21.5019 0.6761 21.1667 0.4716 20.7672 0.3293 C20.3677 0.189 19.9059 0.1169 19.3856 0.1169 L15.6441 0.1169 L15.6441 8.3015 Z M17.4447 4.0922 L17.4447 1.7421 L19.2336 1.7421 C19.5278 1.7421 19.7792 1.785 19.9897 1.8727 C20.2021 1.9604 20.3638 2.0909 20.4769 2.2644 C20.5898 2.4378 20.6484 2.6541 20.6484 2.9114 L20.6484 2.9348 C20.6484 3.1667 20.5937 3.3693 20.4866 3.5408 C20.3775 3.7142 20.2216 3.8486 20.0169 3.9461 C19.8104 4.0416 19.5629 4.0903 19.2687 4.0922 L17.4447 4.0922 Z M27.0089 8.4184 C27.4532 8.4184 27.8566 8.3619 28.2229 8.2508 C28.5893 8.1397 28.907 7.976 29.174 7.7597 C29.4409 7.5434 29.6475 7.2784 29.7936 6.9627 C29.9378 6.649 30.0118 6.2884 30.0138 5.8811 L30.0138 5.8578 C30.0138 5.5031 29.9554 5.1952 29.8423 4.9321 C29.7274 4.671 29.5598 4.4469 29.3396 4.2579 C29.1174 4.0689 28.8466 3.9052 28.5251 3.7687 C28.2035 3.6304 27.8332 3.5096 27.4181 3.4024 C27.0674 3.3128 26.7751 3.2309 26.5451 3.1569 C26.3152 3.0829 26.1359 3.0069 26.0054 2.9309 C25.8748 2.8529 25.7832 2.7672 25.7286 2.6697 C25.676 2.5742 25.6507 2.4592 25.6526 2.3267 L25.6526 2.3033 C25.6526 2.1689 25.6935 2.048 25.7715 1.9409 C25.8514 1.8337 25.9703 1.7499 26.1261 1.6856 C26.282 1.6233 26.475 1.5921 26.7049 1.5901 C27.0499 1.5921 27.4006 1.6642 27.7553 1.8044 C28.1119 1.9448 28.4704 2.1435 28.8329 2.3969 L29.7683 1.0406 C29.3532 0.7054 28.8914 0.4482 28.3847 0.2708 C27.8761 0.0916 27.3246 0.002 26.7283 0 C26.3094 0.002 25.9235 0.0604 25.5747 0.1773 C25.2258 0.2923 24.9238 0.4599 24.6685 0.6761 C24.4132 0.8925 24.2165 1.1536 24.0761 1.4557 C23.9358 1.7577 23.8657 2.0948 23.8637 2.467 L23.8637 2.4904 C23.8657 2.8938 23.93 3.2329 24.0567 3.5077 C24.1833 3.7824 24.3646 4.0104 24.6023 4.1936 C24.84 4.3748 25.1245 4.5288 25.4577 4.6515 C25.789 4.7763 26.1632 4.8893 26.5764 4.9925 C26.9153 5.0802 27.1941 5.1621 27.4103 5.2381 C27.6286 5.316 27.7962 5.394 27.9131 5.4739 C28.032 5.5518 28.1139 5.6375 28.1606 5.7272 C28.2054 5.8188 28.2268 5.9202 28.2249 6.0331 L28.2249 6.0565 C28.2229 6.2982 28.1178 6.4872 27.9112 6.6217 C27.7046 6.7581 27.4162 6.8263 27.044 6.8283 C26.7322 6.8283 26.4379 6.7873 26.1593 6.7054 C25.8787 6.6256 25.6097 6.5106 25.3526 6.3625 C25.0953 6.2144 24.8459 6.039 24.6003 5.8344 L23.5363 7.1088 C23.8657 7.4012 24.2184 7.6448 24.5984 7.8376 C24.9764 8.0325 25.3681 8.1767 25.7754 8.2742 C26.1826 8.3697 26.5938 8.4184 27.0089 8.4184 L27.0089 8.4184 Z M31.5806 8.3015 L37.8125 8.3015 L37.8125 6.6996 L33.3695 6.6996 L33.3695 4.9808 L37.2279 4.9808 L37.2279 3.379 L33.3695 3.379 L33.3695 1.7188 L37.754 1.7188 L37.754 0.1169 L31.5806 0.1169 L31.5806 8.3015 Z M42.0217 8.3599 L43.6118 8.3599 L46.9207 0.1169 L44.9798 0.1169 L42.8401 5.8811 L40.7005 0.1169 L38.7128 0.1169 L42.0217 8.3599 Z M48.1836 8.3015 L54.4155 8.3015 L54.4155 6.6996 L49.9725 6.6996 L49.9725 4.9808 L53.8308 4.9808 L53.8308 3.379 L49.9725 3.379 L49.9725 1.7188 L54.357 1.7188 L54.357 0.1169 L48.1836 0.1169 L48.1836 8.3015 Z M56.0173 8.3015 L57.8179 8.3015 L57.8179 5.6824 L59.2327 5.6824 L60.9865 8.3015 L63.091 8.3015 L61.0917 5.3784 C61.4405 5.2498 61.7465 5.0705 62.0096 4.8425 C62.2706 4.6145 62.4753 4.3339 62.6214 4.0006 C62.7695 3.6675 62.8436 3.2816 62.8455 2.8412 L62.8455 2.8178 C62.8455 2.43 62.7851 2.0792 62.6662 1.7636 C62.5474 1.4479 62.372 1.175 62.144 0.947 C61.8751 0.6761 61.5399 0.4716 61.1404 0.3293 C60.7409 0.189 60.2791 0.1169 59.7588 0.1169 L56.0173 0.1169 L56.0173 8.3015 Z M57.8179 4.0922 L57.8179 1.7421 L59.6068 1.7421 C59.901 1.7421 60.1524 1.785 60.3629 1.8727 C60.5753 1.9604 60.737 2.0909 60.8501 2.2644 C60.963 2.4378 61.0216 2.6541 61.0216 2.9114 L61.0216 2.9348 C61.0216 3.1667 60.9669 3.3693 60.8598 3.5408 C60.7507 3.7142 60.5948 3.8486 60.3901 3.9461 C60.1836 4.0416 59.9361 4.0903 59.6419 4.0922 L57.8179 4.0922 Z M63.7693 8.3015 L65.6049 8.3015 L66.3532 6.4658 L69.8141 6.4658 L70.5624 8.3015 L72.4449 8.3015 L68.9372 0.0584 L67.2769 0.0584 L63.7693 8.3015 Z M66.9963 4.8757 L68.0837 2.2215 L69.171 4.8757 L66.9963 4.8757 Z" transform="translate(14.7363, 62.1035)"/>
  <path style="fill:#06283d; fill-rule:evenodd;stroke:none;" id=" path14" d="M37.9921 18.4947 L42.1527 16.697 L50.396 10.3259 L55.0414 1.9205 L61.9988 0.0736 L62.2768 0 L61.027 2.5477 L60.2526 8.6337 L56.6503 15.0244 L62.5129 17.0254 L50.0316 21.4487 L52.9892 27.3637 L44.856 31.0607 L39.007 39.0647 L38.789 39.0647 L0 39.0799 L10.0668 24.8576 L20.2402 19.5165 L28.6335 12.1408 L34.5432 14.5356 L37.9921 18.4947 Z" transform="translate(18.5016, 19.8281)"/>
  <path style="fill:#06283d; fill-rule:evenodd;stroke:none;" id=" path16" d="M0 4.676 L0.2298 4.676 L0.8603 3.3362 L3.7039 3.3362 L4.3278 4.676 L4.5708 4.676 L2.3904 0.046 L2.1803 0.046 L0 4.676 Z M0.9588 3.1326 L2.2788 0.3086 L3.6054 3.1326 L0.9588 3.1326 Z M6.9548 4.7417 C7.1901 4.7407 7.4036 4.7099 7.5929 4.6486 C7.7834 4.5873 7.9465 4.5008 8.0822 4.3903 C8.218 4.2798 8.3219 4.1495 8.3942 3.9995 C8.4675 3.8496 8.5036 3.6854 8.5047 3.507 L8.5047 3.4939 C8.5057 3.333 8.4784 3.1885 8.4227 3.0604 C8.3668 2.9323 8.2771 2.8185 8.1555 2.7178 C8.033 2.6182 7.8721 2.5295 7.6739 2.4529 C7.4747 2.3763 7.2329 2.3096 6.9483 2.2526 C6.6703 2.1957 6.4393 2.1333 6.2543 2.0655 C6.0704 1.9976 5.9238 1.9209 5.8165 1.8367 C5.7103 1.7535 5.6337 1.6583 5.5888 1.5521 C5.5439 1.447 5.522 1.3277 5.5231 1.1952 L5.5231 1.1821 C5.5241 1.053 5.5538 0.9304 5.6129 0.8155 C5.672 0.6994 5.7574 0.5966 5.8668 0.5068 C5.9774 0.417 6.1088 0.347 6.263 0.2955 C6.4163 0.2441 6.5881 0.2178 6.7775 0.2167 C7.0468 0.2167 7.3018 0.2605 7.5415 0.347 C7.7812 0.4334 8.0056 0.5604 8.2158 0.729 L8.3537 0.5517 C8.1381 0.3798 7.9027 0.2474 7.6466 0.1544 C7.3894 0.0613 7.1048 0.0143 6.7907 0.0131 C6.5728 0.0141 6.3736 0.0449 6.1919 0.1062 C6.0103 0.1675 5.8537 0.2529 5.7202 0.3612 C5.5866 0.4696 5.4837 0.5955 5.4115 0.7388 C5.3381 0.8822 5.3009 1.0365 5.2998 1.2018 L5.2998 1.2149 C5.2988 1.435 5.3502 1.6243 5.4553 1.7819 C5.5604 1.9396 5.7289 2.0731 5.9587 2.1826 C6.1887 2.292 6.4896 2.3829 6.8629 2.4562 C7.1387 2.5131 7.3697 2.5755 7.5524 2.6422 C7.7364 2.7101 7.8819 2.7857 7.9881 2.8688 C8.0953 2.9531 8.1709 3.0473 8.2158 3.1534 C8.2606 3.2596 8.2825 3.3789 8.2814 3.5136 L8.2814 3.5267 C8.2804 3.7215 8.2256 3.8945 8.1173 4.0455 C8.01 4.1976 7.8578 4.317 7.6619 4.4045 C7.466 4.4921 7.234 4.5359 6.968 4.5381 C6.6352 4.5381 6.3298 4.479 6.0518 4.3629 C5.7749 4.2458 5.5155 4.0718 5.2736 3.8419 L5.1225 4.0061 C5.3809 4.2469 5.6621 4.4286 5.9653 4.5534 C6.2675 4.6782 6.598 4.7406 6.9548 4.7417 L6.9548 4.7417 Z M11.0988 4.7417 C11.3342 4.7407 11.5476 4.7099 11.737 4.6486 C11.9275 4.5873 12.0905 4.5008 12.2263 4.3903 C12.362 4.2798 12.4659 4.1495 12.5382 3.9995 C12.6115 3.8496 12.6477 3.6854 12.6488 3.507 L12.6488 3.4939 C12.6498 3.333 12.6225 3.1885 12.5667 3.0604 C12.5108 2.9323 12.4211 2.8185 12.2996 2.7178 C12.177 2.6182 12.0161 2.5295 11.8179 2.4529 C11.6187 2.3763 11.3769 2.3096 11.0923 2.2526 C10.8143 2.1957 10.5833 2.1333 10.3983 2.0655 C10.2145 1.9976 10.0678 1.9209 9.9605 1.8367 C9.8543 1.7535 9.7777 1.6583 9.7329 1.5521 C9.6879 1.447 9.6661 1.3277 9.6672 1.1952 L9.6672 1.1821 C9.6682 1.053 9.6978 0.9304 9.7569 0.8155 C9.816 0.6994 9.9014 0.5966 10.0109 0.5068 C10.1214 0.417 10.2528 0.347 10.4071 0.2955 C10.5603 0.2441 10.7322 0.2178 10.9215 0.2167 C11.1908 0.2167 11.4459 0.2605 11.6855 0.347 C11.9252 0.4334 12.1496 0.5604 12.3598 0.729 L12.4977 0.5517 C12.2821 0.3798 12.0468 0.2474 11.7906 0.1544 C11.5334 0.0613 11.2488 0.0143 10.9347 0.0131 C10.7169 0.0141 10.5176 0.0449 10.3359 0.1062 C10.1543 0.1675 9.9977 0.2529 9.8642 0.3612 C9.7306 0.4696 9.6278 0.5955 9.5555 0.7388 C9.4822 0.8822 9.4449 1.0365 9.4438 1.2018 L9.4438 1.2149 C9.4428 1.435 9.4942 1.6243 9.5993 1.7819 C9.7044 1.9396 9.8729 2.0731 10.1028 2.1826 C10.3327 2.292 10.6336 2.3829 11.0069 2.4562 C11.2827 2.5131 11.5137 2.5755 11.6965 2.6422 C11.8804 2.7101 12.026 2.7857 12.1321 2.8688 C12.2394 2.9531 12.3149 3.0473 12.3598 3.1534 C12.4047 3.2596 12.4265 3.3789 12.4254 3.5136 L12.4254 3.5267 C12.4244 3.7215 12.3697 3.8945 12.2613 4.0455 C12.154 4.1976 12.0019 4.317 11.8059 4.4045 C11.61 4.4921 11.378 4.5359 11.112 4.5381 C10.7792 4.5381 10.4739 4.479 10.1959 4.3629 C9.9189 4.2458 9.6595 4.0718 9.4176 3.8419 L9.2665 4.0061 C9.5249 4.2469 9.8062 4.4286 10.1094 4.5534 C10.4115 4.6782 10.742 4.7406 11.0988 4.7417 L11.0988 4.7417 Z M13.7718 4.676 L17.0424 4.676 L17.0424 4.4724 L13.9951 4.4724 L13.9951 2.4628 L16.7206 2.4628 L16.7206 2.2592 L13.9951 2.2592 L13.9951 0.2824 L17.0095 0.2824 L17.0095 0.0788 L13.7718 0.0788 L13.7718 4.676 Z M19.3147 4.676 L19.538 4.676 L19.538 0.2824 L21.1799 0.2824 L21.1799 0.0788 L17.6795 0.0788 L17.6795 0.2824 L19.3147 0.2824 L19.3147 4.676 Z M23.9841 4.676 L24.2008 4.676 L24.2008 0.4663 L26.1251 3.2246 L26.1382 3.2246 L28.0625 0.4663 L28.0625 4.676 L28.2858 4.676 L28.2858 0.0788 L28.0756 0.0788 L26.1382 2.8765 L24.1943 0.0788 L23.9841 0.0788 L23.9841 4.676 Z M29.2315 4.676 L29.4614 4.676 L30.0918 3.3362 L32.9355 3.3362 L33.5594 4.676 L33.8024 4.676 L31.622 0.046 L31.4119 0.046 L29.2315 4.676 Z M30.1904 3.1326 L31.5104 0.3086 L32.837 3.1326 L30.1904 3.1326 Z M34.7481 4.676 L34.9648 4.676 L34.9648 0.4269 L38.3537 4.676 L38.531 4.676 L38.531 0.0788 L38.3143 0.0788 L38.3143 4.295 L34.9517 0.0788 L34.7481 0.0788 L34.7481 4.676 Z M39.4767 4.676 L39.7065 4.676 L40.337 3.3362 L43.1807 3.3362 L43.8046 4.676 L44.0476 4.676 L41.8672 0.046 L41.657 0.046 L39.4767 4.676 Z M40.4355 3.1326 L41.7555 0.3086 L43.0822 3.1326 L40.4355 3.1326 Z M46.7928 4.7548 C47.0412 4.7538 47.2744 4.7209 47.4922 4.6584 C47.7111 4.5961 47.9125 4.5118 48.0963 4.4067 C48.2803 4.3006 48.4433 4.1823 48.5856 4.0521 L48.5856 2.338 L46.7336 2.338 L46.7336 2.5548 L48.3689 2.5548 L48.3689 3.9667 C48.2463 4.0707 48.1029 4.1681 47.9421 4.2567 C47.78 4.3466 47.6027 4.4188 47.4112 4.4735 C47.2185 4.5282 47.0149 4.5567 46.7993 4.5578 C46.5399 4.5568 46.3035 4.5194 46.0878 4.4461 C45.8733 4.3728 45.6818 4.2688 45.5143 4.1353 C45.3468 4.0018 45.2057 3.8441 45.0907 3.6624 C44.9747 3.4818 44.8871 3.2826 44.8269 3.067 C44.7678 2.8503 44.7371 2.6225 44.7371 2.3839 L44.7371 2.3708 C44.7371 2.1432 44.7689 1.9243 44.8313 1.7119 C44.8926 1.4995 44.9823 1.3025 45.0995 1.1198 C45.2166 0.938 45.3588 0.7782 45.5241 0.6414 C45.6905 0.5035 45.8777 0.3973 46.0867 0.3207 C46.2947 0.2441 46.5213 0.2047 46.7665 0.2036 C46.9909 0.2046 47.1901 0.2277 47.3663 0.2758 C47.5425 0.3229 47.7023 0.3886 47.8479 0.4728 C47.9935 0.5572 48.1314 0.6557 48.2638 0.7684 L48.4083 0.5977 C48.2573 0.4707 48.1019 0.3623 47.9421 0.2737 C47.7833 0.1839 47.6093 0.1171 47.421 0.07 C47.2327 0.0241 47.0182 0 46.7796 0 C46.5016 0.001 46.2454 0.0438 46.0112 0.1291 C45.777 0.2135 45.5668 0.3306 45.3807 0.4816 C45.1958 0.6315 45.0382 0.8067 44.9079 1.007 C44.7776 1.2073 44.6791 1.423 44.6102 1.6561 C44.5423 1.8881 44.5084 2.1289 44.5073 2.3774 L44.5073 2.3905 C44.5073 2.6488 44.5412 2.8962 44.6058 3.1305 C44.6714 3.3658 44.7689 3.5814 44.8958 3.7785 C45.0228 3.9766 45.1794 4.1473 45.3644 4.2929 C45.5494 4.4385 45.7617 4.5523 46.0003 4.6322 C46.2389 4.7132 46.5037 4.7537 46.7928 4.7548 L46.7928 4.7548 Z M49.84 4.676 L53.1106 4.676 L53.1106 4.4724 L50.0633 4.4724 L50.0633 2.4628 L52.7888 2.4628 L52.7888 2.2592 L50.0633 2.2592 L50.0633 0.2824 L53.0777 0.2824 L53.0777 0.0788 L49.84 0.0788 L49.84 4.676 Z M54.2073 4.676 L54.424 4.676 L54.424 0.4663 L56.3483 3.2246 L56.3614 3.2246 L58.2857 0.4663 L58.2857 4.676 L58.509 4.676 L58.509 0.0788 L58.2988 0.0788 L56.3614 2.8765 L54.4175 0.0788 L54.2073 0.0788 L54.2073 4.676 Z M59.875 4.676 L63.1456 4.676 L63.1456 4.4724 L60.0983 4.4724 L60.0983 2.4628 L62.8238 2.4628 L62.8238 2.2592 L60.0983 2.2592 L60.0983 0.2824 L63.1127 0.2824 L63.1127 0.0788 L59.875 0.0788 L59.875 4.676 Z M64.2423 4.676 L64.4591 4.676 L64.4591 0.4269 L67.8479 4.676 L68.0252 4.676 L68.0252 0.0788 L67.8085 0.0788 L67.8085 4.295 L64.446 0.0788 L64.2423 0.0788 L64.2423 4.676 Z M70.5799 4.676 L70.8032 4.676 L70.8032 0.2824 L72.4451 0.2824 L72.4451 0.0788 L68.9446 0.0788 L68.9446 0.2824 L70.5799 0.2824 L70.5799 4.676 Z" transform="translate(14.7363, 72.8645)"/>
  <path style="fill:#53a7d8; fill-rule:evenodd;stroke:none;" id=" path18" d="M32.1273 18.1338 L25.2687 15.9588 L30.3123 9.7185 L30.6462 3.7966 L33.0821 1.3011 L33.9054 1.0824 L38.6076 0 L38.6076 40.3658 L0 40.3658 L13.1371 31.201 L18.5207 29.1389 L21.7478 25.6991 L17.112 22.2224 L23.9987 19.525 L32.1273 18.1338 Z" transform="translate(47.6963, 18.527)"/>
  <path style="fill:#06283d; fill-rule:evenodd;stroke:none;" id=" path20" d="M4.8574 2.3209 L0.2957 4.6386 L0.2957 5.5248 L0 5.5248 L0 0 L4.8574 2.3209 Z" transform="translate(47.0969, 26.7354)"/>
  <path style="fill:#53a7d8; fill-rule:evenodd;stroke:none;" id=" path26" d="M0 32.5806 L10.8358 23.5761 L10.9561 23.4763 L11.1053 23.4098 L21.2369 18.9072 L31.667 5.0629 L32.3438 4.1646 L33.2566 4.825 L41.4861 10.7784 L51.2846 0 L51.2846 3.4117 L42.4932 13.0821 L41.8032 13.8415 L40.9709 13.2394 L32.8221 7.3444 L22.8953 20.5207 L22.7217 20.7513 L22.4419 20.8755 L12.1797 25.4363 L2.84217e-14 35.5576 L0 32.5806 Z" transform="translate(14.8747, 16.4962)"/>
 </g>
</svg>
